<svg id="Capa_1" enable-background="new 0 0 511.88 511.88" height="512" viewBox="0 0 511.88 511.88" width="512" xmlns="http://www.w3.org/2000/svg"><g><path d="m398.945 99.14v111.62h-15v301.12h-346.3v-511.88h262.15l22.39 62.98z" fill="#e5f2fa"/><path d="m398.945 99.14v111.62h-15v301.12h-165.65v-511.88h81.5l22.39 62.98z" fill="#cee9f8"/><path d="m398.945 99.14-99.15-.029v-99.111z" fill="#a1d7f3"/><g fill="#ff4d4d"><path d="m203.236 97.881h-37.706v-37.706h-30v37.706h-37.706v30h37.706v37.706h30v-37.706h37.706z"/><path d="m97.825 195.76h225.94v30h-225.94z"/><path d="m97.825 256h225.94v30h-225.94z"/><path d="m143.005 316.23h150.58v30h-150.58z"/><path d="m143.005 376.47h150.58v30h-150.58z"/></g><path d="m218.295 316.23h75.29v30h-75.29z" fill="#cc295f"/><path d="m218.295 376.47h75.29v30h-75.29z" fill="#cc295f"/><path d="m218.295 195.76h105.47v30h-105.47z" fill="#cc295f"/><path d="m218.295 256h105.47v30h-105.47z" fill="#cc295f"/><path d="m353.885 256h90.23v90.23h-90.23z" fill="#6ba7ff"/><path d="m398.945 256h45.17v90.23h-45.17z" fill="#525cdd"/><path d="m474.235 399.06-5.24 17.28 5.24 12.72v82.82h-150.47v-82.82l21.66-15.01-21.66-14.99v-82.83h150.47z" fill="#7dd5f4"/><path d="m474.235 399.06-5.24 17.28 5.24 12.72v82.82h-75.29v-195.65h75.29z" fill="#6ba7ff"/><path d="m474.235 195.76-11.11 75.24-64.18 15h-75.18v-90.24z" fill="#00429c"/><path d="m398.945 195.76h75.29v90.24h-75.29z" fill="#00347b"/><path d="m323.765 399.06h150.47v30h-150.47z" fill="#f6e178"/><path d="m398.945 399.06h75.29v30h-75.29z" fill="#eec078"/></g></svg>