<svg enable-background="new 0 0 44 58" height="512" viewBox="0 0 44 58" width="512" xmlns="http://www.w3.org/2000/svg"><path d="m40 13 4 3v7h-2-3v-10z" fill="#c9bb7d"/><path d="m4 13-4 3v7h2 3v-10z" fill="#c9bb7d"/><path d="m5 23 9 8h8 8l9-8h1v-14l-9-9h-27v23z" fill="#e7eced"/><path d="m24 14h-12c-.552 0-1-.448-1-1s.448-1 1-1h12c.552 0 1 .448 1 1s-.448 1-1 1z" fill="#dd352e"/><path d="m31 14h-2c-.552 0-1-.448-1-1s.448-1 1-1h2c.552 0 1 .448 1 1s-.448 1-1 1z" fill="#ebba16"/><path d="m24 22h-12c-.552 0-1-.448-1-1s.448-1 1-1h12c.552 0 1 .448 1 1s-.448 1-1 1z" fill="#57abc1"/><path d="m31 22h-2c-.552 0-1-.448-1-1s.448-1 1-1h2c.552 0 1 .448 1 1s-.448 1-1 1z" fill="#cc4b4c"/><path d="m31 18h-12c-.552 0-1-.448-1-1s.448-1 1-1h12c.552 0 1 .448 1 1s-.448 1-1 1z" fill="#61b872"/><path d="m14 18h-2c-.552 0-1-.448-1-1s.448-1 1-1h2c.552 0 1 .448 1 1s-.448 1-1 1z" fill="#75348b"/><path d="m31 0v9h9z" fill="#afb6bb"/><path d="m44 20h-5l-9 8h-8-8l-9-8h-5v38h44z" fill="#f7e6a1"/><path d="m18 38v10c0 2.209 1.791 4 4 4s4-1.791 4-4v-10z" fill="#fff"/><circle cx="22" cy="38" fill="#dd352e" r="4"/><path d="m22 49c-.552 0-1-.448-1-1v-2c0-.552.448-1 1-1s1 .448 1 1v2c0 .552-.448 1-1 1z" fill="#ebba16"/></svg>